# xmcd
#
# Track frame offsets: 
#        150
#        12838
#        25775
#        37264
#        48574
#        58764
#        69711
#        81259
#        94131
#        105590
#        118180
#        130840
#        143657
#        156819
#        169620
#        182189
#        194433
#        204014
#        214439
#        228083
#        240575
#        251742
#        262564
#        276952
#        291914
#        302858
#        316049
#        326264
#        338645
#
# Disc length: 4692 seconds
#
# Revision: 0
# Processed by: cddbd v1.5.2PL0 Copyright (c) Steve Scherf et al.
# Submitted via: ExactAudioCopy v1.2
#
DISCID=9e12521d
DTITLE=Elmore James - The Sky Is Crying
DYEAR=2018
DGENRE=Blues
TTITLE0=The Sky Is Crying
TTITLE1=Dust My Broom
TTITLE2=Knocking At Your Door
TTITLE3=Shake Your Moneymaker
TTITLE4=Mean And Evil
TTITLE5=Can't Stop Lovin'
TTITLE6=Strange Kinda Feeling
TTITLE7=I Was A Fool
TTITLE8=Rollin' And Tumblin'
TTITLE9=Standing At The Crossroads
TTITLE10=Dark And Dreary
TTITLE11=Rock My Baby Right
TTITLE12=Long Tall Woman
TTITLE13=I Held My Baby Last Night (1960 Version)
TTITLE14=Late Hours At Midnight
TTITLE15=Wild About You
TTITLE16=Bobby's Rock (Instrumental)
TTITLE17=Take Me Where You Go
TTITLE18=The 12 Year Old Boy
TTITLE19=The Sun Is Shining
TTITLE20=Fine Little Mama
TTITLE21=No Love In My Heart
TTITLE22=Dust My Blues
TTITLE23=Sunnyland
TTITLE24=Look On Yonder Wall
TTITLE25=Stranger Blues
TTITLE26=Done Somebody Wrong
TTITLE27=Blues Before Sunrise
TTITLE28=Goodbye Baby
EXTD=
EXTT0=
EXTT1=
EXTT2=
EXTT3=
EXTT4=
EXTT5=
EXTT6=
EXTT7=
EXTT8=
EXTT9=
EXTT10=
EXTT11=
EXTT12=
EXTT13=
EXTT14=
EXTT15=
EXTT16=
EXTT17=
EXTT18=
EXTT19=
EXTT20=
EXTT21=
EXTT22=
EXTT23=
EXTT24=
EXTT25=
EXTT26=
EXTT27=
EXTT28=
PLAYORDER=
